<?xml version="1.0" encoding="UTF-8"?>
<svg id="Layer_2" xmlns="http://www.w3.org/2000/svg" xmlns:xlink="http://www.w3.org/1999/xlink" viewBox="0 0 109.59 105.78">
  <defs>
    <style>
      .cls-1 {
        fill: url(#linear-gradient-2);
      }

      .cls-2 {
        fill: url(#linear-gradient-3);
      }

      .cls-3 {
        fill: #005fa3;
      }

      .cls-4 {
        fill: #4ead3c;
      }

      .cls-5 {
        fill: url(#linear-gradient);
      }
    </style>
    <linearGradient id="linear-gradient" x1="53.05" y1="58.59" x2="67.41" y2="79.11" gradientUnits="userSpaceOnUse">
      <stop offset=".22" stop-color="#006c98"/>
      <stop offset=".23" stop-color="#016c97"/>
      <stop offset=".57" stop-color="#1c7d86"/>
      <stop offset=".65" stop-color="#278679"/>
      <stop offset=".83" stop-color="#3c9860"/>
      <stop offset=".94" stop-color="#449f58"/>
    </linearGradient>
    <linearGradient id="linear-gradient-2" x1="28.67" y1="35.08" x2="47.18" y2="67.14" gradientUnits="userSpaceOnUse">
      <stop offset=".22" stop-color="#006c98"/>
      <stop offset=".24" stop-color="#016c97"/>
      <stop offset=".66" stop-color="#1c7d86"/>
      <stop offset=".72" stop-color="#278679"/>
      <stop offset=".85" stop-color="#3c9860"/>
      <stop offset=".94" stop-color="#449f58"/>
    </linearGradient>
    <linearGradient id="linear-gradient-3" x1="45.16" y1="40.69" x2="84.08" y2="40.69" gradientUnits="userSpaceOnUse">
      <stop offset=".22" stop-color="#006c98"/>
      <stop offset=".23" stop-color="#016c97"/>
      <stop offset=".53" stop-color="#1c7d86"/>
      <stop offset=".62" stop-color="#278679"/>
      <stop offset=".82" stop-color="#3c9860"/>
      <stop offset=".94" stop-color="#449f58"/>
    </linearGradient>
  </defs>
  <g id="Layer_10">
    <path class="cls-5" d="M60.92,54.19c0,.32.01.66.08,1.02.4,2.28-.35,4.61-2.22,6.07l-21.23,16.64c29.68,14.31,46.86-13.56,45.3-18.08-1.24-3.6-13.86-6.72-18.96-7.84-1.48-.33-2.93.72-2.97,2.19Z"/>
    <path class="cls-1" d="M50.58,58.84c-.27-.18-.58-.35-.93-.49-2.21-.92-3.82-2.79-4.08-5.1l-2.92-26.24c-28.6,16.23-13.71,45.3-8.93,46.5,3.8.95,13.38-7.56,17.14-11.08,1.09-1.02.97-2.76-.29-3.59Z"/>
    <path class="cls-2" d="M51.38,47.63c.3-.14.6-.32.9-.55,1.9-1.42,4.38-1.87,6.6-.97l25.21,10.25c-.86-32-34.45-33.51-37.85-30.05-2.71,2.75.37,14.96,1.75,19.83.4,1.41,2.04,2.15,3.4,1.5Z"/>
  </g>
  <g id="Layer_11">
    <path class="cls-3" d="M16.21,76.95c.18-7.91,0-47.47,0-47.47l-15.79.08s.71,4.88,0,47.38c-.13,7.66,1.21,13.59,5.66,19.28,4.27,5.46,11.05,8.17,17.22,8.3,23.77.52,59.46.47,59.46.47l.07-14.31s-25.22.12-52.64.08c-6.58,0-14.2-4.66-13.98-13.83Z"/>
    <path class="cls-4" d="M79.06,15.55c-8.2.13-49.21-.31-49.21-.31l.19-15.23s5.06.72,49.12.31c7.94-.07,14.08,1.25,19.95,5.59s8.4,10.72,8.49,16.66c.38,22.94.1,57.36.1,57.36l-14.83-.03s.29-24.33.44-50.78c.04-6.34-4.74-13.73-14.25-13.58Z"/>
    <ellipse class="cls-4" cx="99.91" cy="95.94" rx="9.68" ry="9.85"/>
    <ellipse class="cls-3" cx="9.68" cy="10.19" rx="9.68" ry="9.85"/>
  </g>
</svg>