<?xml version="1.0" encoding="UTF-8"?>
<svg id="Layer_2" xmlns="http://www.w3.org/2000/svg" viewBox="0 0 141.4 141.48">
  <defs>
    <style>
      .cls-1 {
        fill: none;
        stroke-width: 8px;
      }

      .cls-1, .cls-2 {
        stroke: #231f20;
        stroke-miterlimit: 10;
      }

      .cls-2 {
        fill: #231f20;
      }
    </style>
  </defs>
  <g id="Layer_17">
    <path class="cls-1" d="M137.4,70.7c0,36.84-29.86,65.41-66.7,65.41-11.58,0-20.28-1.61-29.91-6.54-1.56-.8-36.79,8.86-36.79,7.83s8.76-34.74,7.56-36.78c-5.46-9.32-7.56-17.85-7.56-29.92C4,33.86,33.86,4,70.7,4s66.7,29.86,66.7,66.7Z"/>
    <path class="cls-2" d="M50.7,38.73l-2.23-.16c-1.64-.12-3.62.39-5.34,1.95-.59.54-1.07,1.19-1.49,1.87l-.89,1.43c-1.48,2.39-2.55,5.03-3,7.81-.33,2-.35,3.97.28,5.29l.8,2.47c1.57,4.85,3.93,9.42,6.98,13.5l5.99,7.5c1.74,1.99,4.93,5.58,9.4,8.89,3.81,2.82,5.71,3.83,8.27,5.16,2.37,1.23,4.85,2.24,7.41,3.01l7.22,2.17c1.19.35,4.75.6,7.89.3,2.21-.21,4.3-1.09,6.07-2.43l2.47-1.87c.6-.45,2.52-2.35,3.3-4.48s.82-5.44.82-5.44c.17-1.76-4.62-3.45-6.21-4.24l-8.38-3.88c-1.22-.57-2.67-.26-3.57.75l-4.77,6.21c-1.38,2.11-3.64,1.4-5.65.41-.31-.15-3.74-2-4.65-2.5-2.02-1.1-5.06-3.16-7.63-5.56-3-2.79-7.05-8.09-7.13-8.2-1.35-2.02-2.55-3.99-2.46-5.41.04-.54.17-1.04.43-1.39l3.87-4.01c1.4-1.9,1.07-3.97.1-6.63l-4.57-10.25c-.56-1.34-1.9-2.2-3.35-2.3Z"/>
  </g>
</svg>